<?xml version="1.0" encoding="utf-8"?>
<!-- Generator: Adobe Illustrator 21.0.0, SVG Export Plug-In . SVG Version: 6.00 Build 0)  -->
<svg version="1.1" id="Layer_1" xmlns="http://www.w3.org/2000/svg" xmlns:xlink="http://www.w3.org/1999/xlink" x="0px" y="0px"
	 viewBox="0 0 262.9 44" style="enable-background:new 0 0 262.9 44;" xml:space="preserve">
<style type="text/css">
	.st0{fill:#353535;}
</style>
<path class="st0" d="M13.6,0.3c1.2,1.3,0.9,3,1.1,4.5c0.7,4.9,1.3,9.7,2,14.6c0,0.1,0.1,0.2,0.2,0.5c0.4-0.2,0.8-0.3,1.2-0.5
	c2.8-1.4,5.5-2.8,8.3-4.1c1.7-0.8,2.5-0.4,2.5,1.5c0,1.4,0,2.8,0,4.5c0.6-0.3,1-0.4,1.4-0.6c3.5-1.7,7-3.5,10.5-5.2
	c1.8-0.9,2.5-0.4,2.5,1.5c0,1.4,0,2.8,0,4.4c0.5-0.2,0.9-0.3,1.2-0.5c3.5-1.8,7-3.5,10.5-5.3c0.2-0.1,0.5-0.3,0.8-0.4
	c1.2-0.5,2.1,0.1,2.1,1.4c0,8.6,0,17.2,0,25.8c0,0.5-0.4,1-0.6,1.5c-18.7,0-37.4,0-56.2,0c-0.2-0.5-0.7-0.9-0.7-1.4
	c0-2.6,0-5.2,0.3-7.8c1.3-10.7,2.7-21.4,4.1-32C4.7,1.8,5.2,1,5.5,0.3C8.2,0.3,10.9,0.3,13.6,0.3z M55.1,41.3c0-7.7,0-15.3,0-23
	c-0.5,0.2-0.9,0.4-1.3,0.6c-2.9,1.4-5.7,2.8-8.6,4.3c-4.2,2.3-4.6,1.9-4.5-2.7c0-0.7,0-1.5,0-2.3c-0.5,0.2-0.7,0.3-0.9,0.4
	c-3.7,1.9-7.4,3.7-11.1,5.6c-1.6,0.8-2.4,0.3-2.4-1.5c0-1.5,0-2.9,0-4.6c-2.2,1.1-4.2,2.1-6.1,3.1c-1,0.5-2.4,0.8-2.8,1.6
	c-0.4,0.8,0.2,2.1,0.2,3.2c0,0.8,0.3,1.1,1.1,1c1.2-0.1,2.5,0,3.7,0c1.1,0,1.5,0.5,1.5,1.5c0,1.4,0,2.7,0,4.1c0,1.1-0.5,1.6-1.6,1.6
	c-1.2,0-2.4,0-3.6,0c0.2,2.5,0.3,4.8,0.5,7.2C31.3,41.3,43.2,41.3,55.1,41.3z M7.2,3c-1.7,7.2-5,36.3-4.4,38.3c4.7,0,9.3,0,14.2,0
	C16,28.3,13.7,15.7,12.3,3C10.5,3,8.9,3,7.2,3z M21.5,29.3c-1.2,0-2.2,0-3.4,0c0.1,0.8,0.3,1.5,0.4,2.2c1.1,0,2.1,0,3.1,0
	C21.5,30.8,21.5,30.1,21.5,29.3z"/>
<path class="st0" d="M89.3,16.2c4.4,0.1,8.7,0,13,0.5c4.3,0.5,6.6,3.2,7,7.3c0.5,4.3-1.3,7.5-5.3,9.2c-0.1,0-0.2,0.1-0.4,0.3
	c2,2.8,3.9,5.7,6,8.7c-1.1,0-2,0.1-2.8,0c-0.3,0-0.7-0.4-1-0.7c-1.5-2.2-3-4.5-4.4-6.7c-0.4-0.7-0.9-0.9-1.6-0.8
	c-2,0.1-4.1,0.1-6.1,0.1c-0.4,0-0.9,0-1.4,0c0,2.8,0,5.5,0,8c-0.2,0.1-0.2,0.2-0.2,0.2c-2.8,0.4-2.8,0.4-2.8-2.4
	c0-7.3,0-14.5,0-21.8C89.3,17.5,89.3,17,89.3,16.2z M92.4,31.3c0.6,0,1,0,1.4,0c2.2,0,4.4,0,6.6-0.1c0.8,0,1.7-0.2,2.4-0.5
	c2.5-0.9,3.8-2.8,3.7-5.8c0-2.7-1.2-4.5-3.8-5.3c-3.4-1.1-6.9-0.5-10.5-0.6C92.4,23.2,92.4,27.2,92.4,31.3z"/>
<path class="st0" d="M219.9,33.9c0,2.4,0,4.6,0,6.8c0,1.6,0,1.6-1.5,1.6c-0.4,0-0.9,0-1.4,0c0-8.6,0-17.1,0-25.7
	c0,0,0.1-0.1,0.1-0.1c4.2,0,8.4-0.2,12.6,0.2c4.2,0.4,6.6,3.1,7.1,6.7c0.6,4.8-1.1,8-5.2,9.9c-0.1,0-0.2,0.1-0.4,0.3
	c2,2.8,3.9,5.7,5.9,8.5c-2.5,0.6-3,0.4-4.3-1.5c-1.3-2-2.6-4-3.9-5.9c-0.2-0.3-0.6-0.7-0.9-0.7C225.4,33.9,222.8,33.9,219.9,33.9z
	 M220,31.1c3,0,5.9,0,8.9,0c0.6,0,1.2-0.3,1.8-0.5c2.4-0.9,3.5-2.9,3.5-5.8c0-2.5-1.3-4.3-3.6-5.1c-3.5-1.1-7-0.5-10.6-0.6
	C220,23.2,220,27.2,220,31.1z"/>
<path class="st0" d="M198.1,16.3c7.4,0,13.1,5.1,13.4,12.5c0.3,6.8-4.5,11.7-10.2,13.1c-7,1.7-14.3-2.2-16.3-8.8
	C182.4,24.5,188.8,16.3,198.1,16.3z M198,19c-5.9,0-10.6,4.6-10.7,10.3c0,5.7,4.9,10.5,10.7,10.4c5.8,0,10.5-4.7,10.5-10.4
	C208.5,23.6,203.8,19,198,19z"/>
<path class="st0" d="M138.7,42.2c-1,0-1.9,0.1-2.7,0c-0.3,0-0.6-0.4-0.8-0.8c-0.8-1.7-1.6-3.3-2.3-5c-0.3-0.7-0.6-0.9-1.4-0.9
	c-4,0-8.1,0-12.1,0c-0.8,0-1.2,0.3-1.5,1c-0.6,1.4-1.3,2.8-1.8,4.3c-0.4,1.2-1,1.6-2.2,1.4c-0.4-0.1-0.9,0-1.5,0
	c0.2-0.5,0.3-0.9,0.5-1.2c3.5-7.9,7.1-15.8,10.6-23.7c0.4-0.8,0.9-1.1,1.6-1c0.8,0.1,1.8-0.4,2.3,0.8c3.6,8.1,7.3,16.2,10.9,24.4
	C138.5,41.7,138.5,41.9,138.7,42.2z M125.4,19.5c-2,4.6-3.9,8.9-5.7,13.2c3.9,0,7.7,0,11.6,0C129.3,28.3,127.4,24,125.4,19.5z"/>
<path class="st0" d="M160.9,22c-6.4-4.2-11.8-4-15.8,0.5c-3.4,3.8-3.3,9.6,0.1,13.5c3,3.4,9.1,5.6,15.6,0.5c0.5,0.6,1.1,1.2,1.7,1.8
	c-4,4.4-12.4,5.9-18.4,0.8c-5.7-4.9-6.1-13.5-0.9-18.8c5.8-5.9,14.9-4.9,19.3-0.2C162,20.7,161.4,21.3,160.9,22z"/>
<path class="st0" d="M83.6,28.3c0,1,0,1.8,0,2.7c-2,0-4,0-6,0c-2,0-4,0-6.1,0c0,3.8,0,7.4,0,11.1c-1,0-1.9,0-2.9,0
	c0-8.6,0-17.1,0-25.7c5.4,0,10.8,0,16.3,0c0,0.8,0,1.6,0,2.5c-4.4,0-8.8,0-13.3,0c0,3.2,0,6.2,0,9.4C75.5,28.3,79.5,28.3,83.6,28.3z
	"/>
<path class="st0" d="M239.7,16.3c1,0,1.8-0.1,2.5,0c0.4,0.1,0.8,0.5,1,0.8c2.4,3.8,4.7,7.5,7,11.3c0.2,0.4,0.5,0.8,0.9,1.3
	c0.6-1,1.2-1.8,1.7-2.7c1.8-3,3.7-6,5.5-9c1.2-2,1.4-2.1,4-1.6c-0.8,1.3-1.5,2.6-2.3,3.9c-2.3,3.9-4.6,7.8-6.9,11.8
	c-0.4,0.7-0.6,1.5-0.6,2.2c-0.1,2.1,0,4.2,0,6.4c0,0.4,0,0.9-0.1,1.2c-0.1,0.1-0.2,0.1-0.2,0.2c-2.6,0.4-2.8,0.3-2.6-2.2
	c0.5-4.6-0.7-8.6-3.4-12.4c-2.2-3.2-4-6.6-5.9-10C240.2,17.2,240,16.8,239.7,16.3z"/>
<path class="st0" d="M175.9,42c-1.1,0-2,0-3,0c0-7.6,0-15.3,0-23c-2.8,0-5.5,0-8.4,0c0-0.9,0-1.7,0-2.6c6.5,0,13.1,0,19.7,0
	c0,0.8,0,1.6,0,2.5c-2.7,0-5.5,0-8.3,0C175.9,26.7,175.9,34.3,175.9,42z"/>
<path class="st0" d="M33.7,26.9c1.1,0,2.2,0,3.3,0c0.9,0,1.4,0.3,1.4,1.2c0,1.6,0,3.1,0,4.7c0,0.8-0.5,1.2-1.3,1.2
	c-2.3,0-4.6,0-6.9,0c-0.9,0-1.3-0.4-1.3-1.3c0-1.5,0-3,0-4.5c0-0.9,0.5-1.3,1.4-1.3C31.3,27,32.5,26.9,33.7,26.9z M31.3,29.3
	c-0.4,2.4-0.4,2.4,1.8,2.4c0.3,0,0.6,0,1,0c2,0,2,0,1.9-2.1c0-0.1-0.1-0.1-0.1-0.3C34.4,29.3,32.9,29.3,31.3,29.3z"/>
<path class="st0" d="M48.1,34c-1.2,0-2.3,0-3.5,0c-0.9,0-1.3-0.5-1.4-1.3c0-1.5,0-3,0-4.6c0-0.8,0.4-1.2,1.3-1.2c2.4,0,4.7,0,7.1,0
	c0.8,0,1.2,0.4,1.2,1.2c0,1.6,0,3.2,0,4.8c0,0.8-0.5,1.1-1.2,1.2C50.4,34.1,49.2,34,48.1,34z M50.3,29.3c-1.4,0-2.8-0.1-4.2,0.1
	c-0.2,0-0.5,0.8-0.5,1.2c0,0.4,0.3,1.1,0.6,1.1c1.4,0.1,2.7,0.1,4.2,0.1C50.3,30.8,50.3,30.1,50.3,29.3z"/>
</svg>
