<?xml version="1.0" encoding="utf-8"?>
<!-- Generator: Adobe Illustrator 21.0.0, SVG Export Plug-In . SVG Version: 6.00 Build 0)  -->
<svg version="1.1" id="Layer_1" xmlns="http://www.w3.org/2000/svg" xmlns:xlink="http://www.w3.org/1999/xlink" x="0px" y="0px"
	 viewBox="0 0 173.3 166" style="enable-background:new 0 0 173.3 166;" xml:space="preserve">
<style type="text/css">
	.st0{fill:#8A9AC4;}
	.st1{fill:url(#SVGID_1_);}
	.st2{fill:url(#SVGID_2_);}
	.st3{fill:#C69C6D;}
	.st4{fill:#A67C52;}
	.st5{fill:#F2F2F2;}
</style>
<g>
	<g>
		<path class="st0" d="M5.2,42L81,4.4l88.7,44.2v5L93.9,91.2L5.2,47L5.2,42L5.2,42z"/>
		
			<linearGradient id="SVGID_1_" gradientUnits="userSpaceOnUse" x1="5.1667" y1="67.5167" x2="169.6667" y2="67.5167" gradientTransform="matrix(1 0 0 -1 0 169.3333)">
			<stop  offset="4.135833e-07" style="stop-color:#525F93"/>
			<stop  offset="1" style="stop-color:#6F7DAA;stop-opacity:0.5"/>
		</linearGradient>
		<path class="st1" d="M5.2,42l88.7,44.3l75.8-37.7V124l-76,37.7L5.3,117.4V42H5.2z"/>
		
			<linearGradient id="SVGID_2_" gradientUnits="userSpaceOnUse" x1="5.1667" y1="67.4167" x2="93.8667" y2="67.4167" gradientTransform="matrix(1 0 0 -1 0 169.3333)">
			<stop  offset="0" style="stop-color:#9FBDD3"/>
			<stop  offset="1" style="stop-color:#B1CFE5;stop-opacity:0.4"/>
		</linearGradient>
		<path class="st2" d="M93.9,161.6V86.3L5.7,42.2H5.2v75.2l88.5,44.3L93.9,161.6z"/>
		<path class="st3" d="M35.8,27l88.9,44l15.4-7.6L50.9,19.3L35.8,27z"/>
		<path class="st4" d="M124.7,71l15.4-7.6v23.7l-4.1-0.7l-4.4,5.3l-6.9-0.5V71z"/>
		<path class="st5" d="M78.3,116.3l-25.6-12.7c-1.4-0.7-2.6,0.1-2.6,1.9v17.2c0,1.8,1.2,3.8,2.6,4.5L78.4,140
			c1.4,0.7,2.6-0.1,2.6-1.9v-17.4C80.9,119,79.7,117.1,78.3,116.3z M72.5,130.4l-16.3-8.2c-0.7-0.4-1.3-1.4-1.3-2.4
			c0-0.9,0.6-1.4,1.3-1.1l16.3,8.2c0.7,0.4,1.3,1.4,1.3,2.4S73.2,130.8,72.5,130.4z M74.8,124.5L56.1,115c-0.7-0.4-1.3-1.4-1.3-2.4
			s0.6-1.4,1.3-1.1l18.7,9.5c0.7,0.4,1.3,1.4,1.3,2.4C76.1,124.5,75.6,124.9,74.8,124.5z"/>
	</g>
</g>
</svg>
