<?xml version="1.0" encoding="utf-8"?>
<!-- Generator: Adobe Illustrator 21.0.0, SVG Export Plug-In . SVG Version: 6.00 Build 0)  -->
<svg version="1.1" id="Layer_1" xmlns="http://www.w3.org/2000/svg" xmlns:xlink="http://www.w3.org/1999/xlink" x="0px" y="0px"
	 viewBox="0 0 103 148.3" style="enable-background:new 0 0 103 148.3;" xml:space="preserve">
<style type="text/css">
	.st0{fill:url(#XMLID_2_);}
	.st1{fill:url(#XMLID_3_);}
	.st2{fill:url(#XMLID_4_);}
	.st3{fill:url(#XMLID_5_);}
	.st4{fill:url(#XMLID_6_);}
	.st5{fill:url(#XMLID_7_);}
	.st6{fill:url(#XMLID_8_);}
	.st7{fill:url(#XMLID_9_);}
	.st8{fill:url(#XMLID_10_);}
	.st9{fill:url(#XMLID_11_);}
	.st10{fill:url(#XMLID_12_);}
</style>
<g id="XMLID_41_">
	<g id="XMLID_42_">
		
			<linearGradient id="XMLID_2_" gradientUnits="userSpaceOnUse" x1="2.6" y1="87.1167" x2="100.4073" y2="87.1167" gradientTransform="matrix(1 0 0 -1 0 161.3333)">
			<stop  offset="0" style="stop-color:#9FBDD3"/>
			<stop  offset="1" style="stop-color:#B1CFE5;stop-opacity:0.4"/>
		</linearGradient>
		<path id="XMLID_53_" class="st0" d="M87,146.6H15.9c-7.4,0-13.3-6-13.3-13.3V15.2c0-7.4,6-13.3,13.3-13.3H87
			c7.4,0,13.3,6,13.3,13.3v118.1C100.4,140.7,94.4,146.6,87,146.6z"/>
		
			<linearGradient id="XMLID_3_" gradientUnits="userSpaceOnUse" x1="2.6" y1="135.2667" x2="100.4" y2="135.2667" gradientTransform="matrix(1 0 0 -1 0 161.3333)">
			<stop  offset="4.135833e-07" style="stop-color:#525F93"/>
			<stop  offset="1" style="stop-color:#6F7DAA;stop-opacity:0.5"/>
		</linearGradient>
		<path id="XMLID_52_" class="st1" d="M87.5,1.7H15.4C8.3,1.7,2.6,7.4,2.6,14.5v36h97.8v-36C100.4,7.5,94.6,1.7,87.5,1.7z"/>
		
			<linearGradient id="XMLID_4_" gradientUnits="userSpaceOnUse" x1="11.2" y1="135.2667" x2="91.6193" y2="135.2667" gradientTransform="matrix(1 0 0 -1 0 161.3333)">
			<stop  offset="1.700736e-02" style="stop-color:#22B573"/>
			<stop  offset="0.2609" style="stop-color:#36BE80"/>
			<stop  offset="0.7417" style="stop-color:#5ACD97"/>
			<stop  offset="1" style="stop-color:#67D3A0"/>
		</linearGradient>
		<path id="XMLID_51_" class="st2" d="M87.9,40.6H15c-2.1,0-3.8-1.7-3.8-3.8V15.4c0-2.1,1.7-3.8,3.8-3.8h72.9c2.1,0,3.8,1.7,3.8,3.8
			v21.4C91.7,38.9,90,40.6,87.9,40.6z"/>
		
			<linearGradient id="XMLID_5_" gradientUnits="userSpaceOnUse" x1="11.2697" y1="89.1666" x2="31.3523" y2="89.1666" gradientTransform="matrix(1 0 0 -1 0 161.3333)">
			<stop  offset="4.135833e-07" style="stop-color:#525F93"/>
			<stop  offset="1" style="stop-color:#6F7DAA"/>
		</linearGradient>
		<path id="XMLID_50_" class="st3" d="M28,82.3H14.6c-1.9,0-3.4-1.5-3.4-3.4V65.5c0-1.9,1.5-3.4,3.4-3.4H28c1.9,0,3.4,1.5,3.4,3.4
			v13.4C31.4,80.8,29.8,82.3,28,82.3z"/>
		
			<linearGradient id="XMLID_6_" gradientUnits="userSpaceOnUse" x1="41.438" y1="89.0667" x2="61.5207" y2="89.0667" gradientTransform="matrix(1 0 0 -1 0 161.3333)">
			<stop  offset="4.135833e-07" style="stop-color:#525F93"/>
			<stop  offset="1" style="stop-color:#6F7DAA"/>
		</linearGradient>
		<path id="XMLID_49_" class="st4" d="M57.9,82.3H45.1c-2,0-3.6-1.6-3.6-3.6V65.9c0-2,1.6-3.6,3.6-3.6h12.8c2,0,3.6,1.6,3.6,3.6
			v12.8C61.5,80.6,59.9,82.3,57.9,82.3z"/>
		
			<linearGradient id="XMLID_7_" gradientUnits="userSpaceOnUse" x1="71.6064" y1="89.0667" x2="91.689" y2="89.0667" gradientTransform="matrix(1 0 0 -1 0 161.3333)">
			<stop  offset="4.135833e-07" style="stop-color:#525F93"/>
			<stop  offset="1" style="stop-color:#6F7DAA"/>
		</linearGradient>
		<path id="XMLID_48_" class="st5" d="M88,82.3H75.4c-2.1,0-3.7-1.7-3.7-3.7V66c0-2.1,1.7-3.7,3.7-3.7H88c2.1,0,3.7,1.7,3.7,3.7
			v12.6C91.7,80.6,90,82.3,88,82.3z"/>
		
			<linearGradient id="XMLID_8_" gradientUnits="userSpaceOnUse" x1="11.2697" y1="61.6667" x2="31.3523" y2="61.6667" gradientTransform="matrix(1 0 0 -1 0 161.3333)">
			<stop  offset="4.135833e-07" style="stop-color:#525F93"/>
			<stop  offset="1" style="stop-color:#6F7DAA"/>
		</linearGradient>
		<path id="XMLID_47_" class="st6" d="M28,109.8H14.6c-1.9,0-3.4-1.5-3.4-3.4V93c0-1.9,1.5-3.4,3.4-3.4H28c1.9,0,3.4,1.5,3.4,3.4
			v13.4C31.4,108.3,29.8,109.8,28,109.8z"/>
		
			<linearGradient id="XMLID_9_" gradientUnits="userSpaceOnUse" x1="41.438" y1="61.5667" x2="61.5207" y2="61.5667" gradientTransform="matrix(1 0 0 -1 0 161.3333)">
			<stop  offset="4.135833e-07" style="stop-color:#525F93"/>
			<stop  offset="1" style="stop-color:#6F7DAA"/>
		</linearGradient>
		<path id="XMLID_46_" class="st7" d="M57.9,109.8H45.1c-2,0-3.6-1.6-3.6-3.6V93.4c0-2,1.6-3.6,3.6-3.6h12.8c2,0,3.6,1.6,3.6,3.6
			v12.8C61.5,108.2,59.9,109.8,57.9,109.8z"/>
		
			<linearGradient id="XMLID_10_" gradientUnits="userSpaceOnUse" x1="11.2697" y1="34.2667" x2="31.3523" y2="34.2667" gradientTransform="matrix(1 0 0 -1 0 161.3333)">
			<stop  offset="4.135833e-07" style="stop-color:#525F93"/>
			<stop  offset="1" style="stop-color:#6F7DAA"/>
		</linearGradient>
		<path id="XMLID_45_" class="st8" d="M28,137.2H14.6c-1.9,0-3.4-1.5-3.4-3.4v-13.4c0-1.9,1.5-3.4,3.4-3.4H28c1.9,0,3.4,1.5,3.4,3.4
			v13.4C31.4,135.7,29.8,137.2,28,137.2z"/>
		
			<linearGradient id="XMLID_11_" gradientUnits="userSpaceOnUse" x1="41.438" y1="34.1667" x2="61.5207" y2="34.1667" gradientTransform="matrix(1 0 0 -1 0 161.3333)">
			<stop  offset="4.135833e-07" style="stop-color:#525F93"/>
			<stop  offset="1" style="stop-color:#6F7DAA"/>
		</linearGradient>
		<path id="XMLID_44_" class="st9" d="M57.9,137.2H45.1c-2,0-3.6-1.6-3.6-3.6v-12.8c0-2,1.6-3.6,3.6-3.6h12.8c2,0,3.6,1.6,3.6,3.6
			v12.8C61.5,135.6,59.9,137.2,57.9,137.2z"/>
		
			<linearGradient id="XMLID_12_" gradientUnits="userSpaceOnUse" x1="71.6064" y1="48.3167" x2="91.689" y2="48.3167" gradientTransform="matrix(1 0 0 -1 0 161.3333)">
			<stop  offset="4.135833e-07" style="stop-color:#525F93"/>
			<stop  offset="1" style="stop-color:#6F7DAA"/>
		</linearGradient>
		<path id="XMLID_43_" class="st10" d="M88,137.2H75.4c-2.1,0-3.7-1.7-3.7-3.7V92.6c0-2.1,1.7-3.7,3.7-3.7H88c2.1,0,3.7,1.7,3.7,3.7
			v40.9C91.7,135.6,90,137.2,88,137.2z"/>
	</g>
</g>
</svg>
