<?xml version="1.0" encoding="utf-8"?>
<!-- Generator: Adobe Illustrator 19.0.0, SVG Export Plug-In . SVG Version: 6.00 Build 0)  -->
<svg version="1.1" id="Layer_1" xmlns="http://www.w3.org/2000/svg" xmlns:xlink="http://www.w3.org/1999/xlink" x="0px" y="0px"
	 viewBox="100 -100 300 300" style="enable-background:new 100 -100 300 300;" xml:space="preserve">
<style type="text/css">
	.st0{fill:#FFFFFF;}
</style>
<g>
	<g>
		<path class="st0" d="M-327.3-47.1c-1.5,0.7-3.2,1.1-4.9,1.4c1.8-1.1,3.1-2.8,3.8-4.8c-1.7,1-3.5,1.7-5.5,2.1
			c-1.6-1.7-3.8-2.7-6.3-2.7c-4.8,0-8.6,3.9-8.6,8.6c0,0.7,0.1,1.3,0.2,2c-7.2-0.4-13.5-3.8-17.8-9c-0.7,1.3-1.2,2.8-1.2,4.3
			c0,3,1.5,5.6,3.8,7.2c-1.4,0-2.7-0.4-3.9-1.1v0.1c0,4.2,3,7.7,6.9,8.4c-0.7,0.2-1.5,0.3-2.3,0.3c-0.6,0-1.1-0.1-1.6-0.2
			c1.1,3.4,4.3,5.9,8,6c-2.9,2.3-6.7,3.7-10.7,3.7c-0.7,0-1.4,0-2.1-0.1c3.8,2.4,8.3,3.9,13.2,3.9c15.8,0,24.5-13.1,24.5-24.5l0-1.1
			C-329.9-43.8-328.4-45.3-327.3-47.1z"/>
	</g>
</g>
<g id="XMLID_7_">
	<path id="XMLID_8_" class="st0" d="M-474.7-34.2h4.4v18.1c0,0.4,0.3,0.6,0.6,0.6h7.5c0.4,0,0.6-0.3,0.6-0.6v-18h5.1
		c0.3,0,0.6-0.2,0.6-0.6l0.8-6.7c0-0.2,0-0.4-0.2-0.5c-0.1-0.1-0.3-0.2-0.5-0.2h-5.8v-4.2c0-1.3,0.7-1.9,2-1.9c0.2,0,3.8,0,3.8,0
		c0.4,0,0.6-0.3,0.6-0.6v-6.1c0-0.4-0.3-0.6-0.6-0.6h-5.2c0,0-0.1,0-0.2,0c-0.9,0-4.1,0.2-6.6,2.5c-2.8,2.5-2.4,5.6-2.3,6.1v4.9
		h-4.6c-0.4,0-0.6,0.3-0.6,0.6v6.6C-475.3-34.5-475-34.2-474.7-34.2z"/>
</g>
<g>
	<path class="st0" d="M-397.8-55.5h-18c-6.1,0-11.1,5-11.1,11.1v18c0,6.1,5,11.1,11.1,11.1h18c6.1,0,11.1-5,11.1-11.1v-18
		C-386.7-50.6-391.7-55.5-397.8-55.5z M-390.3-26.5c0,4.1-3.4,7.5-7.5,7.5h-18c-4.1,0-7.5-3.4-7.5-7.5v-18c0-4.1,3.4-7.5,7.5-7.5h18
		c4.1,0,7.5,3.4,7.5,7.5L-390.3-26.5L-390.3-26.5z"/>
	<path class="st0" d="M-406.7-45.8c-5.7,0-10.3,4.6-10.3,10.3c0,5.7,4.6,10.3,10.3,10.3c5.7,0,10.3-4.6,10.3-10.3
		C-396.4-41.2-401-45.8-406.7-45.8z M-406.7-28.7c-3.7,0-6.8-3-6.8-6.8c0-3.7,3-6.8,6.8-6.8c3.7,0,6.8,3,6.8,6.8
		C-400-31.7-403-28.7-406.7-28.7z"/>
	<path class="st0" d="M-396-48.8c-0.7,0-1.4,0.3-1.8,0.8c-0.5,0.5-0.8,1.2-0.8,1.8c0,0.7,0.3,1.4,0.8,1.8c0.5,0.5,1.2,0.8,1.8,0.8
		c0.7,0,1.4-0.3,1.8-0.8c0.5-0.5,0.8-1.2,0.8-1.8c0-0.7-0.3-1.4-0.8-1.8C-394.6-48.5-395.3-48.8-396-48.8z"/>
</g>
<g id="XMLID_5_">
	<path id="XMLID_6_" class="st0" d="M271.7,36.3c-1.7-2-4.8-2.8-10.8-2.8h-21.7c-6.1,0-9.3,0.9-11,3c-1.6,2.1-1.6,5.2-1.6,9.5v8.1
		c0,8.3,2,12.5,12.7,12.5h21.7c5.2,0,8.1-0.7,9.9-2.5c1.9-1.8,2.7-4.8,2.7-10v-8.1C273.5,41.4,273.4,38.3,271.7,36.3z M256.7,51.1
		l-9.9,5.2c-0.2,0.1-0.5,0.2-0.7,0.2c-0.3,0-0.5-0.1-0.8-0.2c-0.5-0.3-0.7-0.8-0.7-1.3V44.7c0-0.5,0.3-1,0.7-1.3
		c0.5-0.3,1-0.3,1.5,0l9.9,5.1c0.5,0.3,0.8,0.8,0.8,1.3C257.5,50.3,257.2,50.9,256.7,51.1z"/>
</g>
</svg>
